<svg xmlns="http://www.w3.org/2000/svg" xmlns:v="https://svgstorm.com"
viewBox = "0 0 512 512"
width="512"
height="512">
<g fill="None" fill-opacity="0.0" stroke="#FAB04F" stroke-opacity="1.00" stroke-width="0.3"><path d="
M 0.00 512.00 
L 512.00 512.00
L 512.00 0.00
L 0.00 0.00
L 0.00 512.00
M 255.00 153.00 
C 258.01 157.33 260.90 163.22 267.00 165.00
C 266.77 171.96 259.15 171.33 254.00 171.00
C 258.53 188.58 240.76 201.76 245.00 218.00
C 245.91 211.50 252.07 207.36 258.00 206.00
C 258.20 201.82 258.87 195.71 264.03 195.03 C 269.19 194.34 270.45 202.64 276.00 201.00
C 277.31 206.81 270.81 207.75 267.00 209.00
C 267.36 213.97 267.01 218.68 265.00 223.00
C 274.83 226.65 282.25 218.77 283.93 210.93 C 285.60 203.08 288.44 193.50 292.75 187.75 C 297.07 182.00 309.74 175.53 315.22 181.78 C 320.71 188.03 334.58 181.47 336.92 187.08 C 339.26 192.69 331.38 205.26 323.97 205.97 C 316.57 206.68 311.20 222.98 325.00 221.00
C 320.46 208.10 341.46 213.40 341.00 222.00 C 340.53 230.61 337.43 240.47 334.22 248.22 C 331.02 255.98 326.51 261.90 321.25 268.25 C 315.98 274.60 311.76 280.25 304.30 284.30 C 296.85 288.36 291.58 295.32 282.00 295.00 C 272.42 294.68 258.76 295.04 249.00 295.00 C 239.25 294.96 226.92 296.41 220.08 290.92 C 213.24 285.42 207.21 281.47 200.00 280.00
C 194.72 269.45 184.60 259.17 180.08 246.92 C 175.55 234.68 166.70 211.35 189.00 213.00
C 187.33 219.44 190.56 222.61 197.00 221.00
C 195.35 213.94 200.79 208.84 200.00 202.00
C 197.09 201.84 198.07 206.13 197.00 208.00
C 190.45 187.31 206.81 179.47 226.00 182.00 C 245.19 184.53 235.93 149.52 255.00 153.00
M 409.00 316.00 
C 414.13 319.62 407.54 331.09 410.00 337.00 C 412.46 342.91 407.07 353.37 410.00 360.00 C 412.93 366.63 405.96 376.84 399.33 371.67 C 392.70 366.50 400.67 357.55 398.00 351.00 C 395.33 344.45 400.59 334.58 398.00 328.00 C 395.41 321.42 400.99 310.34 409.00 316.00
M 155.00 337.00 
C 156.37 344.34 154.96 352.68 152.00 359.00
C 145.64 372.61 130.81 375.20 117.77 369.23 C 104.73 363.26 100.69 348.57 104.00 335.00
C 105.45 329.05 112.44 320.64 119.00 320.00
C 119.97 319.90 121.02 320.00 122.00 320.00
C 122.50 320.00 123.00 320.00 123.00 320.00
C 133.22 312.44 152.99 326.20 155.00 337.00
M 272.00 320.00 
C 272.50 320.00 273.50 320.02 274.00 320.00
C 280.47 319.74 284.54 325.05 285.00 331.00
C 285.12 332.55 285.21 334.46 285.00 336.00
C 284.31 341.14 278.91 344.79 285.25 348.75 C 291.58 352.72 288.23 360.77 285.08 365.08 C 281.93 369.39 275.92 371.96 270.00 372.00 C 264.08 372.03 254.27 371.98 248.00 372.00
C 248.00 354.33 248.00 336.67 248.00 319.00
C 255.83 319.66 264.99 317.67 272.00 320.00
M 192.00 334.00 
C 192.21 334.30 192.65 334.87 193.00 335.00
C 197.65 336.69 200.27 345.28 199.00 350.00 C 197.73 354.72 201.95 368.24 198.00 371.00
C 195.54 372.72 189.76 369.71 187.00 371.00
C 184.47 363.92 192.88 342.60 180.97 342.03 C 169.07 341.45 175.75 363.81 174.00 371.00
C 170.33 371.00 166.67 371.00 163.00 371.00
C 159.64 368.65 162.43 358.64 162.00 354.00 C 161.57 349.36 161.46 340.11 162.00 335.00 C 162.54 329.89 173.08 331.83 175.00 335.00
C 179.42 331.55 187.62 330.27 192.00 334.00
M 240.00 343.00 
C 240.05 343.50 240.00 344.00 240.00 344.00
C 247.17 349.49 239.30 360.24 231.00 356.00 C 222.70 351.76 212.49 360.23 222.22 362.78 C 231.96 365.32 233.05 355.57 240.00 365.00
C 232.39 378.63 204.40 372.88 204.00 356.00
C 203.79 353.81 203.79 351.19 204.00 349.00
C 204.75 341.12 211.53 333.99 219.08 332.08 C 226.62 330.17 239.17 334.13 240.00 343.00
M 315.00 332.00 
C 341.18 335.23 334.83 378.00 308.00 373.00 C 281.17 368.00 288.70 328.76 315.00 332.00
M 370.00 336.00 
C 370.06 336.49 370.00 337.00 370.00 337.00
C 374.34 340.32 371.86 349.96 377.00 353.00
C 380.76 345.51 380.15 327.71 393.00 334.00
C 396.73 337.73 388.15 353.30 386.00 357.00
C 383.42 361.44 379.60 375.75 372.31 368.69 C 365.01 361.64 371.02 354.27 365.00 347.00
C 360.17 350.31 358.87 375.78 348.00 371.00 C 337.13 366.22 343.46 349.28 336.00 342.00
C 334.41 338.18 330.60 333.97 337.01 333.01 C 343.41 332.05 346.39 334.16 347.33 339.67 C 348.27 345.18 349.62 348.68 352.00 352.00
C 353.79 343.40 358.98 324.83 370.00 336.00 Z"/>
</g>
<g fill="None" fill-opacity="0.0" stroke="#9B4B08" stroke-opacity="1.00" stroke-width="0.3"><path d="
M 255.00 153.00 
C 235.93 149.52 245.19 184.53 226.00 182.00 C 206.81 179.47 190.45 187.31 197.00 208.00
C 198.07 206.13 197.09 201.84 200.00 202.00
C 200.79 208.84 195.35 213.94 197.00 221.00
C 190.56 222.61 187.33 219.44 189.00 213.00
C 166.70 211.35 175.55 234.68 180.08 246.92 C 184.60 259.17 194.72 269.45 200.00 280.00
C 207.21 281.47 213.24 285.42 220.08 290.92 C 226.92 296.41 239.25 294.96 249.00 295.00 C 258.76 295.04 272.42 294.68 282.00 295.00 C 291.58 295.32 296.85 288.36 304.30 284.30 C 311.76 280.25 315.98 274.60 321.25 268.25 C 326.51 261.90 331.02 255.98 334.22 248.22 C 337.43 240.47 340.53 230.61 341.00 222.00 C 341.46 213.40 320.46 208.10 325.00 221.00
C 311.20 222.98 316.57 206.68 323.97 205.97 C 331.38 205.26 339.26 192.69 336.92 187.08 C 334.58 181.47 320.71 188.03 315.22 181.78 C 309.74 175.53 297.07 182.00 292.75 187.75 C 288.44 193.50 285.60 203.08 283.93 210.93 C 282.25 218.77 274.83 226.65 265.00 223.00
C 267.01 218.68 267.36 213.97 267.00 209.00
C 270.81 207.75 277.31 206.81 276.00 201.00
C 270.45 202.64 269.19 194.34 264.03 195.03 C 258.87 195.71 258.20 201.82 258.00 206.00
C 252.07 207.36 245.91 211.50 245.00 218.00
C 240.76 201.76 258.53 188.58 254.00 171.00
C 259.15 171.33 266.77 171.96 267.00 165.00
C 260.90 163.22 258.01 157.33 255.00 153.00
M 232.00 208.00 
C 232.00 212.67 232.00 217.33 232.00 222.00
C 225.90 220.58 217.78 224.66 212.75 220.25 C 207.73 215.83 214.96 210.23 216.00 206.00
C 221.44 206.17 226.25 208.94 232.00 208.00
M 334.00 224.00 
C 331.35 247.47 320.70 261.92 302.30 277.30 C 283.91 292.69 252.88 290.37 229.00 288.00
C 230.29 284.84 233.23 283.52 228.00 282.00
C 225.63 271.88 236.53 266.23 234.00 256.00
C 237.06 255.56 240.26 254.45 241.00 251.00
C 238.14 250.55 228.81 241.79 226.26 247.26 C 223.70 252.73 223.83 258.63 216.77 259.77 C 209.71 260.91 209.67 267.24 207.00 272.00
C 191.92 261.07 182.54 242.45 181.00 224.00
C 229.61 235.75 285.27 234.78 334.00 224.00
M 221.00 283.00 
C 213.65 282.23 221.43 275.61 221.00 283.00 Z"/>
</g>
<g fill="None" fill-opacity="0.0" stroke="#F7AA51" stroke-opacity="1.00" stroke-width="0.3"><path d="
M 232.00 208.00 
C 226.25 208.94 221.44 206.17 216.00 206.00
C 214.96 210.23 207.73 215.83 212.75 220.25 C 217.78 224.66 225.90 220.58 232.00 222.00
C 232.00 217.33 232.00 212.67 232.00 208.00 Z"/>
</g>
<g fill="None" fill-opacity="0.0" stroke="#FBC971" stroke-opacity="1.00" stroke-width="0.3"><path d="
M 334.00 224.00 
C 285.27 234.78 229.61 235.75 181.00 224.00
C 182.54 242.45 191.92 261.07 207.00 272.00
C 209.67 267.24 209.71 260.91 216.77 259.77 C 223.83 258.63 223.70 252.73 226.26 247.26 C 228.81 241.79 238.14 250.55 241.00 251.00
C 240.26 254.45 237.06 255.56 234.00 256.00
C 236.53 266.23 225.63 271.88 228.00 282.00
C 233.23 283.52 230.29 284.84 229.00 288.00
C 252.88 290.37 283.91 292.69 302.30 277.30 C 320.70 261.92 331.35 247.47 334.00 224.00 Z"/>
</g>
<g fill="None" fill-opacity="0.0" stroke="#D88A49" stroke-opacity="1.00" stroke-width="0.3"><path d="
M 221.00 283.00 
C 221.43 275.61 213.65 282.23 221.00 283.00 Z"/>
</g>
<g fill="None" fill-opacity="0.0" stroke="#F4CC96" stroke-opacity="1.00" stroke-width="0.3"><path d="
M 409.00 316.00 
C 400.99 310.34 395.41 321.42 398.00 328.00 C 400.59 334.58 395.33 344.45 398.00 351.00 C 400.67 357.55 392.70 366.50 399.33 371.67 C 405.96 376.84 412.93 366.63 410.00 360.00 C 407.07 353.37 412.46 342.91 410.00 337.00 C 407.54 331.09 414.13 319.62 409.00 316.00
M 409.00 335.00 
C 409.00 344.40 411.88 359.14 409.00 368.00
C 408.71 368.90 409.24 370.08 409.00 371.00
C 393.96 374.85 398.99 353.46 399.00 344.00 C 399.00 334.54 393.94 313.16 409.00 317.00
C 409.00 323.00 409.00 329.00 409.00 335.00 Z"/>
</g>
<g fill="None" fill-opacity="0.0" stroke="#FFF1CA" stroke-opacity="1.00" stroke-width="0.3"><path d="
M 409.00 368.00 
C 401.09 373.85 398.78 365.58 400.00 359.00 C 401.22 352.42 398.73 342.90 400.00 337.00 C 401.27 331.10 396.49 319.50 403.03 318.03 C 409.56 316.55 408.69 331.81 409.00 335.00
C 409.00 329.00 409.00 323.00 409.00 317.00
C 393.94 313.16 399.00 334.54 399.00 344.00 C 398.99 353.46 393.96 374.85 409.00 371.00
C 409.24 370.08 408.71 368.90 409.00 368.00 Z"/>
</g>
<g fill="None" fill-opacity="0.0" stroke="#FDFCF5" stroke-opacity="1.00" stroke-width="0.3"><path d="
M 409.00 368.00 
C 411.88 359.14 409.00 344.40 409.00 335.00
C 408.69 331.81 409.56 316.55 403.03 318.03 C 396.49 319.50 401.27 331.10 400.00 337.00 C 398.73 342.90 401.22 352.42 400.00 359.00 C 398.78 365.58 401.09 373.85 409.00 368.00 Z"/>
</g>
<g fill="None" fill-opacity="0.0" stroke="#FFF5D3" stroke-opacity="1.00" stroke-width="0.3"><path d="
M 123.00 320.00 
C 129.20 320.00 138.51 320.20 143.25 323.75 C 147.98 327.31 153.52 332.38 155.00 337.00
C 152.99 326.20 133.22 312.44 123.00 320.00 Z"/>
</g>
<g fill="None" fill-opacity="0.0" stroke="#F7D8A6" stroke-opacity="1.00" stroke-width="0.3"><path d="
M 285.00 336.00 
C 284.15 339.13 277.94 341.15 278.00 345.00
C 284.48 348.53 290.48 356.03 283.75 363.75 C 277.01 371.46 273.07 369.22 262.00 371.00 C 250.93 372.78 247.16 366.36 249.00 355.00 C 250.84 343.64 248.26 337.05 249.00 326.00 C 249.74 314.95 263.83 321.94 272.00 320.00
C 264.99 317.67 255.83 319.66 248.00 319.00
C 248.00 336.67 248.00 354.33 248.00 372.00
C 254.27 371.98 264.08 372.03 270.00 372.00 C 275.92 371.96 281.93 369.39 285.08 365.08 C 288.23 360.77 291.58 352.72 285.25 348.75 C 278.91 344.79 284.31 341.14 285.00 336.00 Z"/>
</g>
<g fill="None" fill-opacity="0.0" stroke="#F5CE9B" stroke-opacity="1.00" stroke-width="0.3"><path d="
M 104.00 335.00 
C 105.93 329.56 113.59 321.83 119.00 320.00
C 112.44 320.64 105.45 329.05 104.00 335.00 Z"/>
</g>
<g fill="None" fill-opacity="0.0" stroke="#FEF4D4" stroke-opacity="1.00" stroke-width="0.3"><path d="
M 104.00 335.00 
C 100.69 348.57 104.73 363.26 117.77 369.23 C 130.81 375.20 145.64 372.61 152.00 359.00
C 147.12 366.05 132.52 374.19 122.00 370.00 C 111.48 365.81 106.40 357.33 105.00 345.00 C 103.60 332.67 114.44 327.39 122.00 320.00
C 121.02 320.00 119.97 319.90 119.00 320.00
C 113.59 321.83 105.93 329.56 104.00 335.00 Z"/>
</g>
<g fill="None" fill-opacity="0.0" stroke="#FCFBF7" stroke-opacity="1.00" stroke-width="0.3"><path d="
M 152.00 359.00 
C 154.96 352.68 156.37 344.34 155.00 337.00
C 153.52 332.38 147.98 327.31 143.25 323.75 C 138.51 320.20 129.20 320.00 123.00 320.00
C 123.00 320.00 122.50 320.00 122.00 320.00
C 114.44 327.39 103.60 332.67 105.00 345.00 C 106.40 357.33 111.48 365.81 122.00 370.00 C 132.52 374.19 147.12 366.05 152.00 359.00
M 145.00 351.00 
C 144.54 352.16 144.23 352.72 144.00 354.00
C 143.71 355.61 144.22 357.37 144.00 359.00
C 139.95 360.56 135.41 362.97 133.00 367.00
C 128.46 364.31 124.99 363.09 120.25 360.75 C 115.51 358.41 114.40 352.62 111.00 352.00
C 111.02 347.85 111.21 342.97 114.00 340.00
C 115.87 335.52 117.55 333.45 121.00 330.00
C 122.43 328.57 123.81 326.57 125.00 325.00
C 139.32 323.62 151.40 337.36 145.00 351.00 Z"/>
</g>
<g fill="None" fill-opacity="0.0" stroke="#FEF6DA" stroke-opacity="1.00" stroke-width="0.3"><path d="
M 285.00 336.00 
C 285.21 334.46 285.12 332.55 285.00 331.00
C 284.16 326.32 278.29 321.02 274.00 320.00
C 273.50 320.02 272.50 320.00 272.00 320.00
C 263.83 321.94 249.74 314.95 249.00 326.00 C 248.26 337.05 250.84 343.64 249.00 355.00 C 247.16 366.36 250.93 372.78 262.00 371.00 C 273.07 369.22 277.01 371.46 283.75 363.75 C 290.48 356.03 284.48 348.53 278.00 345.00
C 277.94 341.15 284.15 339.13 285.00 336.00
M 274.00 321.00 
C 272.79 326.64 280.38 323.44 281.30 327.70 C 282.23 331.95 280.39 333.81 283.00 336.00
C 280.46 339.35 274.77 341.45 276.00 347.00
C 269.08 347.58 260.79 344.76 256.00 351.00
C 256.91 359.49 258.25 364.07 268.00 364.00 C 277.75 363.93 280.15 356.78 276.00 349.00
C 288.24 346.25 285.65 367.23 274.98 367.98 C 264.30 368.72 248.06 374.02 250.00 359.00 C 251.94 343.98 248.55 335.43 250.00 321.00
C 258.00 321.00 266.00 321.00 274.00 321.00
M 273.00 349.00 
C 282.38 352.82 270.37 368.59 262.00 362.00 C 253.63 355.41 262.05 344.54 273.00 349.00 Z"/>
</g>
<g fill="None" fill-opacity="0.0" stroke="#F8D59E" stroke-opacity="1.00" stroke-width="0.3"><path d="
M 285.00 331.00 
C 284.54 325.05 280.47 319.74 274.00 320.00
C 278.29 321.02 284.16 326.32 285.00 331.00 Z"/>
</g>
<g fill="None" fill-opacity="0.0" stroke="#FBFCF8" stroke-opacity="1.00" stroke-width="0.3"><path d="
M 274.00 321.00 
C 266.00 321.00 258.00 321.00 250.00 321.00
C 248.55 335.43 251.94 343.98 250.00 359.00 C 248.06 374.02 264.30 368.72 274.98 367.98 C 285.65 367.23 288.24 346.25 276.00 349.00
C 280.15 356.78 277.75 363.93 268.00 364.00 C 258.25 364.07 256.91 359.49 256.00 351.00
C 260.79 344.76 269.08 347.58 276.00 347.00
C 274.77 341.45 280.46 339.35 283.00 336.00
C 280.39 333.81 282.23 331.95 281.30 327.70 C 280.38 323.44 272.79 326.64 274.00 321.00
M 267.00 326.00 
C 281.34 327.45 276.40 342.90 264.93 342.93 C 253.45 342.96 254.21 324.71 267.00 326.00 Z"/>
</g>
<g fill="None" fill-opacity="0.0" stroke="#FEF7DB" stroke-opacity="1.00" stroke-width="0.3"><path d="
M 121.00 330.00 
C 136.10 321.22 147.90 336.41 145.00 351.00
C 151.40 337.36 139.32 323.62 125.00 325.00
C 123.81 326.57 122.43 328.57 121.00 330.00 Z"/>
</g>
<g fill="None" fill-opacity="0.0" stroke="#FDF0D1" stroke-opacity="1.00" stroke-width="0.3"><path d="
M 267.00 326.00 
C 254.21 324.71 253.45 342.96 264.93 342.93 C 276.40 342.90 281.34 327.45 267.00 326.00
M 272.00 340.00 
C 268.00 340.00 264.00 340.00 260.00 340.00
C 260.01 336.27 258.34 332.92 259.00 329.00
C 266.91 326.94 278.45 330.62 272.00 340.00 Z"/>
</g>
<g fill="None" fill-opacity="0.0" stroke="#F0CC97" stroke-opacity="1.00" stroke-width="0.3"><path d="
M 121.00 330.00 
C 117.55 333.45 115.87 335.52 114.00 340.00
C 112.81 347.82 115.04 357.97 122.75 361.25 C 130.45 364.54 140.41 361.19 144.00 354.00
C 144.23 352.72 144.54 352.16 145.00 351.00
C 147.90 336.41 136.10 321.22 121.00 330.00
M 134.00 329.00 
C 152.84 333.38 143.70 367.01 125.00 361.00 C 106.30 354.99 114.56 324.48 134.00 329.00 Z"/>
</g>
<g fill="None" fill-opacity="0.0" stroke="#F8B156" stroke-opacity="1.00" stroke-width="0.3"><path d="
M 134.00 329.00 
C 114.56 324.48 106.30 354.99 125.00 361.00 C 143.70 367.01 152.84 333.38 134.00 329.00 Z"/>
</g>
<g fill="None" fill-opacity="0.0" stroke="#F2B362" stroke-opacity="1.00" stroke-width="0.3"><path d="
M 272.00 340.00 
C 278.45 330.62 266.91 326.94 259.00 329.00
C 258.34 332.92 260.01 336.27 260.00 340.00
C 264.00 340.00 268.00 340.00 272.00 340.00 Z"/>
</g>
<g fill="None" fill-opacity="0.0" stroke="#F2CB91" stroke-opacity="1.00" stroke-width="0.3"><path d="
M 163.00 371.00 
C 162.10 361.84 164.20 356.54 163.00 347.00 C 161.80 337.46 164.24 333.14 172.29 335.71 C 180.35 338.27 183.39 330.52 192.00 334.00
C 187.62 330.27 179.42 331.55 175.00 335.00
C 173.08 331.83 162.54 329.89 162.00 335.00 C 161.46 340.11 161.57 349.36 162.00 354.00 C 162.43 358.64 159.64 368.65 163.00 371.00 Z"/>
</g>
<g fill="None" fill-opacity="0.0" stroke="#F9D59E" stroke-opacity="1.00" stroke-width="0.3"><path d="
M 204.00 349.00 
C 207.58 330.74 230.80 328.62 240.00 343.00
C 239.17 334.13 226.62 330.17 219.08 332.08 C 211.53 333.99 204.75 341.12 204.00 349.00 Z"/>
</g>
<g fill="None" fill-opacity="0.0" stroke="#F9D9A8" stroke-opacity="1.00" stroke-width="0.3"><path d="
M 315.00 332.00 
C 288.70 328.76 281.17 368.00 308.00 373.00 C 334.83 378.00 341.18 335.23 315.00 332.00
M 319.00 370.00 
C 318.57 370.17 318.00 370.00 318.00 370.00
C 305.60 379.18 287.97 361.19 292.00 348.00 C 296.03 334.81 312.94 328.79 324.25 337.75 C 335.55 346.71 332.01 364.89 319.00 370.00 Z"/>
</g>
<g fill="None" fill-opacity="0.0" stroke="#FDEEC9" stroke-opacity="1.00" stroke-width="0.3"><path d="
M 163.00 371.00 
C 166.67 371.00 170.33 371.00 174.00 371.00
C 175.75 363.81 169.07 341.45 180.97 342.03 C 192.88 342.60 184.47 363.92 187.00 371.00
C 189.76 369.71 195.54 372.72 198.00 371.00
C 196.73 359.08 201.52 344.64 193.00 335.00
C 192.65 334.87 192.21 334.30 192.00 334.00
C 183.39 330.52 180.35 338.27 172.29 335.71 C 164.24 333.14 161.80 337.46 163.00 347.00 C 164.20 356.54 162.10 361.84 163.00 371.00
M 175.00 340.00 
C 173.42 348.56 170.49 350.87 172.00 361.00 C 173.51 371.13 162.98 370.08 165.00 360.00 C 167.02 349.92 162.12 345.70 164.00 336.00
C 169.22 335.04 173.96 338.78 178.03 336.03 C 182.10 333.28 188.25 333.51 191.68 336.32 C 195.11 339.14 198.39 345.28 197.00 350.00 C 195.60 354.72 197.61 361.15 197.00 366.00 C 196.39 370.85 187.00 373.02 189.00 363.00 C 191.00 352.98 189.28 336.76 175.00 340.00 Z"/>
</g>
<g fill="None" fill-opacity="0.0" stroke="#FCFBEE" stroke-opacity="1.00" stroke-width="0.3"><path d="
M 204.00 349.00 
C 203.79 351.19 203.79 353.81 204.00 356.00
C 205.75 364.30 213.33 369.00 221.01 370.99 C 228.68 372.99 245.79 366.20 232.00 361.00
C 227.66 368.58 213.58 364.10 215.00 355.00
C 223.67 355.00 232.33 355.00 241.00 355.00
C 241.42 351.12 240.60 347.64 240.00 344.00
C 240.00 344.00 240.05 343.50 240.00 343.00
C 230.80 328.62 207.58 330.74 204.00 349.00
M 214.00 348.00 
C 215.07 342.46 223.20 334.60 229.25 341.75 C 235.29 348.91 219.92 351.68 214.00 348.00 Z"/>
</g>
<g fill="None" fill-opacity="0.0" stroke="#F0C992" stroke-opacity="1.00" stroke-width="0.3"><path d="
M 336.00 342.00 
C 335.31 339.46 334.63 336.84 335.00 334.00
C 349.76 330.44 345.14 350.39 351.00 358.00
C 356.34 350.31 355.00 326.94 370.00 336.00
C 358.98 324.83 353.79 343.40 352.00 352.00
C 349.62 348.68 348.27 345.18 347.33 339.67 C 346.39 334.16 343.41 332.05 337.01 333.01 C 330.60 333.97 334.41 338.18 336.00 342.00 Z"/>
</g>
<g fill="None" fill-opacity="0.0" stroke="#F2D1A3" stroke-opacity="1.00" stroke-width="0.3"><path d="
M 370.00 337.00 
C 372.43 343.85 372.53 352.17 377.00 358.00
C 379.84 351.59 381.52 344.84 383.00 338.00
C 383.48 336.79 383.75 335.33 384.00 334.00
C 387.00 334.00 390.00 334.00 393.00 334.00
C 380.15 327.71 380.76 345.51 377.00 353.00
C 371.86 349.96 374.34 340.32 370.00 337.00 Z"/>
</g>
<g fill="None" fill-opacity="0.0" stroke="#FCFCF5" stroke-opacity="1.00" stroke-width="0.3"><path d="
M 175.00 340.00 
C 189.28 336.76 191.00 352.98 189.00 363.00 C 187.00 373.02 196.39 370.85 197.00 366.00 C 197.61 361.15 195.60 354.72 197.00 350.00 C 198.39 345.28 195.11 339.14 191.68 336.32 C 188.25 333.51 182.10 333.28 178.03 336.03 C 173.96 338.78 169.22 335.04 164.00 336.00
C 162.12 345.70 167.02 349.92 165.00 360.00 C 162.98 370.08 173.51 371.13 172.00 361.00 C 170.49 350.87 173.42 348.56 175.00 340.00 Z"/>
</g>
<g fill="None" fill-opacity="0.0" stroke="#FEF8DF" stroke-opacity="1.00" stroke-width="0.3"><path d="
M 318.00 370.00 
C 308.71 370.00 297.80 369.02 295.08 358.92 C 292.35 348.83 294.90 338.43 304.74 335.74 C 314.59 333.05 323.86 335.34 328.75 345.25 C 333.64 355.15 322.87 363.82 319.00 370.00
C 332.01 364.89 335.55 346.71 324.25 337.75 C 312.94 328.79 296.03 334.81 292.00 348.00 C 287.97 361.19 305.60 379.18 318.00 370.00 Z"/>
</g>
<g fill="None" fill-opacity="0.0" stroke="#FCFBF0" stroke-opacity="1.00" stroke-width="0.3"><path d="
M 336.00 342.00 
C 343.46 349.28 337.13 366.22 348.00 371.00 C 358.87 375.78 360.17 350.31 365.00 347.00
C 371.02 354.27 365.01 361.64 372.31 368.69 C 379.60 375.75 383.42 361.44 386.00 357.00
C 388.01 349.71 389.97 342.56 391.00 335.00
C 387.66 334.50 384.48 335.02 383.00 338.00
C 381.52 344.84 379.84 351.59 377.00 358.00
C 372.53 352.17 372.43 343.85 370.00 337.00
C 370.00 337.00 370.06 336.49 370.00 336.00
C 355.00 326.94 356.34 350.31 351.00 358.00
C 345.14 350.39 349.76 330.44 335.00 334.00
C 334.63 336.84 335.31 339.46 336.00 342.00 Z"/>
</g>
<g fill="None" fill-opacity="0.0" stroke="#FDEFC9" stroke-opacity="1.00" stroke-width="0.3"><path d="
M 383.00 338.00 
C 384.48 335.02 387.66 334.50 391.00 335.00
C 389.97 342.56 388.01 349.71 386.00 357.00
C 388.15 353.30 396.73 337.73 393.00 334.00
C 390.00 334.00 387.00 334.00 384.00 334.00
C 383.75 335.33 383.48 336.79 383.00 338.00 Z"/>
</g>
<g fill="None" fill-opacity="0.0" stroke="#EFC58D" stroke-opacity="1.00" stroke-width="0.3"><path d="
M 198.00 371.00 
C 201.95 368.24 197.73 354.72 199.00 350.00 C 200.27 345.28 197.65 336.69 193.00 335.00
C 201.52 344.64 196.73 359.08 198.00 371.00 Z"/>
</g>
<g fill="None" fill-opacity="0.0" stroke="#FBFCF9" stroke-opacity="1.00" stroke-width="0.3"><path d="
M 318.00 370.00 
C 318.00 370.00 318.57 370.17 319.00 370.00
C 322.87 363.82 333.64 355.15 328.75 345.25 C 323.86 335.34 314.59 333.05 304.74 335.74 C 294.90 338.43 292.35 348.83 295.08 358.92 C 297.80 369.02 308.71 370.00 318.00 370.00
M 321.00 346.00 
C 321.04 346.50 321.00 347.00 321.00 347.00
C 327.51 349.66 321.20 367.00 311.78 365.78 C 302.36 364.56 298.16 355.68 300.77 346.77 C 303.38 337.86 320.25 335.84 321.00 346.00 Z"/>
</g>
<g fill="None" fill-opacity="0.0" stroke="#F1C689" stroke-opacity="1.00" stroke-width="0.3"><path d="
M 214.00 348.00 
C 219.92 351.68 235.29 348.91 229.25 341.75 C 223.20 334.60 215.07 342.46 214.00 348.00 Z"/>
</g>
<g fill="None" fill-opacity="0.0" stroke="#FEFAE3" stroke-opacity="1.00" stroke-width="0.3"><path d="
M 321.00 347.00 
C 324.87 357.94 314.92 368.86 304.00 362.00
C 302.99 357.65 299.38 350.55 304.00 347.00
C 303.97 346.50 304.00 346.00 304.00 346.00
C 304.55 337.23 317.56 342.34 321.00 346.00
C 320.25 335.84 303.38 337.86 300.77 346.77 C 298.16 355.68 302.36 364.56 311.78 365.78 C 321.20 367.00 327.51 349.66 321.00 347.00 Z"/>
</g>
<g fill="None" fill-opacity="0.0" stroke="#FEF6DA" stroke-opacity="1.00" stroke-width="0.3"><path d="
M 144.00 354.00 
C 140.41 361.19 130.45 364.54 122.75 361.25 C 115.04 357.97 112.81 347.82 114.00 340.00
C 111.21 342.97 111.02 347.85 111.00 352.00
C 114.40 352.62 115.51 358.41 120.25 360.75 C 124.99 363.09 128.46 364.31 133.00 367.00
C 135.41 362.97 139.95 360.56 144.00 359.00
C 144.22 357.37 143.71 355.61 144.00 354.00 Z"/>
</g>
<g fill="None" fill-opacity="0.0" stroke="#F4D5A9" stroke-opacity="1.00" stroke-width="0.3"><path d="
M 304.00 346.00 
C 308.01 344.69 317.49 339.94 319.75 347.25 C 322.01 354.55 319.40 362.36 311.00 362.00 C 302.60 361.64 304.38 352.67 304.00 347.00
C 299.38 350.55 302.99 357.65 304.00 362.00
C 314.92 368.86 324.87 357.94 321.00 347.00
C 321.00 347.00 321.04 346.50 321.00 346.00
C 317.56 342.34 304.55 337.23 304.00 346.00 Z"/>
</g>
<g fill="None" fill-opacity="0.0" stroke="#F3B059" stroke-opacity="1.00" stroke-width="0.3"><path d="
M 304.00 346.00 
C 304.00 346.00 303.97 346.50 304.00 347.00
C 304.38 352.67 302.60 361.64 311.00 362.00 C 319.40 362.36 322.01 354.55 319.75 347.25 C 317.49 339.94 308.01 344.69 304.00 346.00 Z"/>
</g>
<g fill="None" fill-opacity="0.0" stroke="#F6D4A5" stroke-opacity="1.00" stroke-width="0.3"><path d="
M 204.00 356.00 
C 204.40 372.88 232.39 378.63 240.00 365.00
C 233.05 355.57 231.96 365.32 222.22 362.78 C 212.49 360.23 222.70 351.76 231.00 356.00 C 239.30 360.24 247.17 349.49 240.00 344.00
C 240.60 347.64 241.42 351.12 241.00 355.00
C 232.33 355.00 223.67 355.00 215.00 355.00
C 213.58 364.10 227.66 368.58 232.00 361.00
C 245.79 366.20 228.68 372.99 221.01 370.99 C 213.33 369.00 205.75 364.30 204.00 356.00 Z"/>
</g>
<g fill="None" fill-opacity="0.0" stroke="#F1B666" stroke-opacity="1.00" stroke-width="0.3"><path d="
M 273.00 349.00 
C 262.05 344.54 253.63 355.41 262.00 362.00 C 270.37 368.59 282.38 352.82 273.00 349.00 Z"/>
</g>
<g fill="#FAB04F" fill-opacity="1.00" stroke="None">
<path d="
M 0.00 512.00 
L 512.00 512.00
L 512.00 0.00
L 0.00 0.00
L 0.00 512.00
M 255.00 153.00 
C 258.01 157.33 260.90 163.22 267.00 165.00
C 266.77 171.96 259.15 171.33 254.00 171.00
C 258.53 188.58 240.76 201.76 245.00 218.00
C 245.91 211.50 252.07 207.36 258.00 206.00
C 258.20 201.82 258.87 195.71 264.03 195.03 C 269.19 194.34 270.45 202.64 276.00 201.00
C 277.31 206.81 270.81 207.75 267.00 209.00
C 267.36 213.97 267.01 218.68 265.00 223.00
C 274.83 226.65 282.25 218.77 283.93 210.93 C 285.60 203.08 288.44 193.50 292.75 187.75 C 297.07 182.00 309.74 175.53 315.22 181.78 C 320.71 188.03 334.58 181.47 336.92 187.08 C 339.26 192.69 331.38 205.26 323.97 205.97 C 316.57 206.68 311.20 222.98 325.00 221.00
C 320.46 208.10 341.46 213.40 341.00 222.00 C 340.53 230.61 337.43 240.47 334.22 248.22 C 331.02 255.98 326.51 261.90 321.25 268.25 C 315.98 274.60 311.76 280.25 304.30 284.30 C 296.85 288.36 291.58 295.32 282.00 295.00 C 272.42 294.68 258.76 295.04 249.00 295.00 C 239.25 294.96 226.92 296.41 220.08 290.92 C 213.24 285.42 207.21 281.47 200.00 280.00
C 194.72 269.45 184.60 259.17 180.08 246.92 C 175.55 234.68 166.70 211.35 189.00 213.00
C 187.33 219.44 190.56 222.61 197.00 221.00
C 195.35 213.94 200.79 208.84 200.00 202.00
C 197.09 201.84 198.07 206.13 197.00 208.00
C 190.45 187.31 206.81 179.47 226.00 182.00 C 245.19 184.53 235.93 149.52 255.00 153.00
M 409.00 316.00 
C 414.13 319.62 407.54 331.09 410.00 337.00 C 412.46 342.91 407.07 353.37 410.00 360.00 C 412.93 366.63 405.96 376.84 399.33 371.67 C 392.70 366.50 400.67 357.55 398.00 351.00 C 395.33 344.45 400.59 334.58 398.00 328.00 C 395.41 321.42 400.99 310.34 409.00 316.00
M 155.00 337.00 
C 156.37 344.34 154.96 352.68 152.00 359.00
C 145.64 372.61 130.81 375.20 117.77 369.23 C 104.73 363.26 100.69 348.57 104.00 335.00
C 105.45 329.05 112.44 320.64 119.00 320.00
C 119.97 319.90 121.02 320.00 122.00 320.00
C 122.50 320.00 123.00 320.00 123.00 320.00
C 133.22 312.44 152.99 326.20 155.00 337.00
M 272.00 320.00 
C 272.50 320.00 273.50 320.02 274.00 320.00
C 280.47 319.74 284.54 325.05 285.00 331.00
C 285.12 332.55 285.21 334.46 285.00 336.00
C 284.31 341.14 278.91 344.79 285.25 348.75 C 291.58 352.72 288.23 360.77 285.08 365.08 C 281.93 369.39 275.92 371.96 270.00 372.00 C 264.08 372.03 254.27 371.98 248.00 372.00
C 248.00 354.33 248.00 336.67 248.00 319.00
C 255.83 319.66 264.99 317.67 272.00 320.00
M 192.00 334.00 
C 192.21 334.30 192.65 334.87 193.00 335.00
C 197.65 336.69 200.27 345.28 199.00 350.00 C 197.73 354.72 201.95 368.24 198.00 371.00
C 195.54 372.72 189.76 369.71 187.00 371.00
C 184.47 363.92 192.88 342.60 180.97 342.03 C 169.07 341.45 175.75 363.81 174.00 371.00
C 170.33 371.00 166.67 371.00 163.00 371.00
C 159.64 368.65 162.43 358.64 162.00 354.00 C 161.57 349.36 161.46 340.11 162.00 335.00 C 162.54 329.89 173.08 331.83 175.00 335.00
C 179.42 331.55 187.62 330.27 192.00 334.00
M 240.00 343.00 
C 240.05 343.50 240.00 344.00 240.00 344.00
C 247.17 349.49 239.30 360.24 231.00 356.00 C 222.70 351.76 212.49 360.23 222.22 362.78 C 231.96 365.32 233.05 355.57 240.00 365.00
C 232.39 378.63 204.40 372.88 204.00 356.00
C 203.79 353.81 203.79 351.19 204.00 349.00
C 204.75 341.12 211.53 333.99 219.08 332.08 C 226.62 330.17 239.17 334.13 240.00 343.00
M 315.00 332.00 
C 341.18 335.23 334.83 378.00 308.00 373.00 C 281.17 368.00 288.70 328.76 315.00 332.00
M 370.00 336.00 
C 370.06 336.49 370.00 337.00 370.00 337.00
C 374.34 340.32 371.86 349.96 377.00 353.00
C 380.76 345.51 380.15 327.71 393.00 334.00
C 396.73 337.73 388.15 353.30 386.00 357.00
C 383.42 361.44 379.60 375.75 372.31 368.69 C 365.01 361.64 371.02 354.27 365.00 347.00
C 360.17 350.31 358.87 375.78 348.00 371.00 C 337.13 366.22 343.46 349.28 336.00 342.00
C 334.41 338.18 330.60 333.97 337.01 333.01 C 343.41 332.05 346.39 334.16 347.33 339.67 C 348.27 345.18 349.62 348.68 352.00 352.00
C 353.79 343.40 358.98 324.83 370.00 336.00 Z"/>
</g>
<g fill="#9B4B08" fill-opacity="1.00" stroke="None">
<path d="
M 255.00 153.00 
C 235.93 149.52 245.19 184.53 226.00 182.00 C 206.81 179.47 190.45 187.31 197.00 208.00
C 198.07 206.13 197.09 201.84 200.00 202.00
C 200.79 208.84 195.35 213.94 197.00 221.00
C 190.56 222.61 187.33 219.44 189.00 213.00
C 166.70 211.35 175.55 234.68 180.08 246.92 C 184.60 259.17 194.72 269.45 200.00 280.00
C 207.21 281.47 213.24 285.42 220.08 290.92 C 226.92 296.41 239.25 294.96 249.00 295.00 C 258.76 295.04 272.42 294.68 282.00 295.00 C 291.58 295.32 296.85 288.36 304.30 284.30 C 311.76 280.25 315.98 274.60 321.25 268.25 C 326.51 261.90 331.02 255.98 334.22 248.22 C 337.43 240.47 340.53 230.61 341.00 222.00 C 341.46 213.40 320.46 208.10 325.00 221.00
C 311.20 222.98 316.57 206.68 323.97 205.97 C 331.38 205.26 339.26 192.69 336.92 187.08 C 334.58 181.47 320.71 188.03 315.22 181.78 C 309.74 175.53 297.07 182.00 292.75 187.75 C 288.44 193.50 285.60 203.08 283.93 210.93 C 282.25 218.77 274.83 226.65 265.00 223.00
C 267.01 218.68 267.36 213.97 267.00 209.00
C 270.81 207.75 277.31 206.81 276.00 201.00
C 270.45 202.64 269.19 194.34 264.03 195.03 C 258.87 195.71 258.20 201.82 258.00 206.00
C 252.07 207.36 245.91 211.50 245.00 218.00
C 240.76 201.76 258.53 188.58 254.00 171.00
C 259.15 171.33 266.77 171.96 267.00 165.00
C 260.90 163.22 258.01 157.33 255.00 153.00
M 232.00 208.00 
C 232.00 212.67 232.00 217.33 232.00 222.00
C 225.90 220.58 217.78 224.66 212.75 220.25 C 207.73 215.83 214.96 210.23 216.00 206.00
C 221.44 206.17 226.25 208.94 232.00 208.00
M 334.00 224.00 
C 331.35 247.47 320.70 261.92 302.30 277.30 C 283.91 292.69 252.88 290.37 229.00 288.00
C 230.29 284.84 233.23 283.52 228.00 282.00
C 225.63 271.88 236.53 266.23 234.00 256.00
C 237.06 255.56 240.26 254.45 241.00 251.00
C 238.14 250.55 228.81 241.79 226.26 247.26 C 223.70 252.73 223.83 258.63 216.77 259.77 C 209.71 260.91 209.67 267.24 207.00 272.00
C 191.92 261.07 182.54 242.45 181.00 224.00
C 229.61 235.75 285.27 234.78 334.00 224.00
M 221.00 283.00 
C 213.65 282.23 221.43 275.61 221.00 283.00 Z"/>
</g>
<g fill="#F7AA51" fill-opacity="1.00" stroke="None">
<path d="
M 232.00 208.00 
C 226.25 208.94 221.44 206.17 216.00 206.00
C 214.96 210.23 207.73 215.83 212.75 220.25 C 217.78 224.66 225.90 220.58 232.00 222.00
C 232.00 217.33 232.00 212.67 232.00 208.00 Z"/>
</g>
<g fill="#FBC971" fill-opacity="1.00" stroke="None">
<path d="
M 334.00 224.00 
C 285.27 234.78 229.61 235.75 181.00 224.00
C 182.54 242.45 191.92 261.07 207.00 272.00
C 209.67 267.24 209.71 260.91 216.77 259.77 C 223.83 258.63 223.70 252.73 226.26 247.26 C 228.81 241.79 238.14 250.55 241.00 251.00
C 240.26 254.45 237.06 255.56 234.00 256.00
C 236.53 266.23 225.63 271.88 228.00 282.00
C 233.23 283.52 230.29 284.84 229.00 288.00
C 252.88 290.37 283.91 292.69 302.30 277.30 C 320.70 261.92 331.35 247.47 334.00 224.00 Z"/>
</g>
<g fill="#D88A49" fill-opacity="1.00" stroke="None">
<path d="
M 221.00 283.00 
C 221.43 275.61 213.65 282.23 221.00 283.00 Z"/>
</g>
<g fill="#F4CC96" fill-opacity="1.00" stroke="None">
<path d="
M 409.00 316.00 
C 400.99 310.34 395.41 321.42 398.00 328.00 C 400.59 334.58 395.33 344.45 398.00 351.00 C 400.67 357.55 392.70 366.50 399.33 371.67 C 405.96 376.84 412.93 366.63 410.00 360.00 C 407.07 353.37 412.46 342.91 410.00 337.00 C 407.54 331.09 414.13 319.62 409.00 316.00
M 409.00 335.00 
C 409.00 344.40 411.88 359.14 409.00 368.00
C 408.71 368.90 409.24 370.08 409.00 371.00
C 393.96 374.85 398.99 353.46 399.00 344.00 C 399.00 334.54 393.94 313.16 409.00 317.00
C 409.00 323.00 409.00 329.00 409.00 335.00 Z"/>
</g>
<g fill="#FFF1CA" fill-opacity="1.00" stroke="None">
<path d="
M 409.00 368.00 
C 401.09 373.85 398.78 365.58 400.00 359.00 C 401.22 352.42 398.73 342.90 400.00 337.00 C 401.27 331.10 396.49 319.50 403.03 318.03 C 409.56 316.55 408.69 331.81 409.00 335.00
C 409.00 329.00 409.00 323.00 409.00 317.00
C 393.94 313.16 399.00 334.54 399.00 344.00 C 398.99 353.46 393.96 374.85 409.00 371.00
C 409.24 370.08 408.71 368.90 409.00 368.00 Z"/>
</g>
<g fill="#FDFCF5" fill-opacity="1.00" stroke="None">
<path d="
M 409.00 368.00 
C 411.88 359.14 409.00 344.40 409.00 335.00
C 408.69 331.81 409.56 316.55 403.03 318.03 C 396.49 319.50 401.27 331.10 400.00 337.00 C 398.73 342.90 401.22 352.42 400.00 359.00 C 398.78 365.58 401.09 373.85 409.00 368.00 Z"/>
</g>
<g fill="#FFF5D3" fill-opacity="1.00" stroke="None">
<path d="
M 123.00 320.00 
C 129.20 320.00 138.51 320.20 143.25 323.75 C 147.98 327.31 153.52 332.38 155.00 337.00
C 152.99 326.20 133.22 312.44 123.00 320.00 Z"/>
</g>
<g fill="#F7D8A6" fill-opacity="1.00" stroke="None">
<path d="
M 285.00 336.00 
C 284.15 339.13 277.94 341.15 278.00 345.00
C 284.48 348.53 290.48 356.03 283.75 363.75 C 277.01 371.46 273.07 369.22 262.00 371.00 C 250.93 372.78 247.16 366.36 249.00 355.00 C 250.84 343.64 248.26 337.05 249.00 326.00 C 249.74 314.95 263.83 321.94 272.00 320.00
C 264.99 317.67 255.83 319.66 248.00 319.00
C 248.00 336.67 248.00 354.33 248.00 372.00
C 254.27 371.98 264.08 372.03 270.00 372.00 C 275.92 371.96 281.93 369.39 285.08 365.08 C 288.23 360.77 291.58 352.72 285.25 348.75 C 278.91 344.79 284.31 341.14 285.00 336.00 Z"/>
</g>
<g fill="#F5CE9B" fill-opacity="1.00" stroke="None">
<path d="
M 104.00 335.00 
C 105.93 329.56 113.59 321.83 119.00 320.00
C 112.44 320.64 105.45 329.05 104.00 335.00 Z"/>
</g>
<g fill="#FEF4D4" fill-opacity="1.00" stroke="None">
<path d="
M 104.00 335.00 
C 100.69 348.57 104.73 363.26 117.77 369.23 C 130.81 375.20 145.64 372.61 152.00 359.00
C 147.12 366.05 132.52 374.19 122.00 370.00 C 111.48 365.81 106.40 357.33 105.00 345.00 C 103.60 332.67 114.44 327.39 122.00 320.00
C 121.02 320.00 119.97 319.90 119.00 320.00
C 113.59 321.83 105.93 329.56 104.00 335.00 Z"/>
</g>
<g fill="#FCFBF7" fill-opacity="1.00" stroke="None">
<path d="
M 152.00 359.00 
C 154.96 352.68 156.37 344.34 155.00 337.00
C 153.52 332.38 147.98 327.31 143.25 323.75 C 138.51 320.20 129.20 320.00 123.00 320.00
C 123.00 320.00 122.50 320.00 122.00 320.00
C 114.44 327.39 103.60 332.67 105.00 345.00 C 106.40 357.33 111.48 365.81 122.00 370.00 C 132.52 374.19 147.12 366.05 152.00 359.00
M 145.00 351.00 
C 144.54 352.16 144.23 352.72 144.00 354.00
C 143.71 355.61 144.22 357.37 144.00 359.00
C 139.95 360.56 135.41 362.97 133.00 367.00
C 128.46 364.31 124.99 363.09 120.25 360.75 C 115.51 358.41 114.40 352.62 111.00 352.00
C 111.02 347.85 111.21 342.97 114.00 340.00
C 115.87 335.52 117.55 333.45 121.00 330.00
C 122.43 328.57 123.81 326.57 125.00 325.00
C 139.32 323.62 151.40 337.36 145.00 351.00 Z"/>
</g>
<g fill="#FEF6DA" fill-opacity="1.00" stroke="None">
<path d="
M 285.00 336.00 
C 285.21 334.46 285.12 332.55 285.00 331.00
C 284.16 326.32 278.29 321.02 274.00 320.00
C 273.50 320.02 272.50 320.00 272.00 320.00
C 263.83 321.94 249.74 314.95 249.00 326.00 C 248.26 337.05 250.84 343.64 249.00 355.00 C 247.16 366.36 250.93 372.78 262.00 371.00 C 273.07 369.22 277.01 371.46 283.75 363.75 C 290.48 356.03 284.48 348.53 278.00 345.00
C 277.94 341.15 284.15 339.13 285.00 336.00
M 274.00 321.00 
C 272.79 326.64 280.38 323.44 281.30 327.70 C 282.23 331.95 280.39 333.81 283.00 336.00
C 280.46 339.35 274.77 341.45 276.00 347.00
C 269.08 347.58 260.79 344.76 256.00 351.00
C 256.91 359.49 258.25 364.07 268.00 364.00 C 277.75 363.93 280.15 356.78 276.00 349.00
C 288.24 346.25 285.65 367.23 274.98 367.98 C 264.30 368.72 248.06 374.02 250.00 359.00 C 251.94 343.98 248.55 335.43 250.00 321.00
C 258.00 321.00 266.00 321.00 274.00 321.00
M 273.00 349.00 
C 282.38 352.82 270.37 368.59 262.00 362.00 C 253.63 355.41 262.05 344.54 273.00 349.00 Z"/>
</g>
<g fill="#F8D59E" fill-opacity="1.00" stroke="None">
<path d="
M 285.00 331.00 
C 284.54 325.05 280.47 319.74 274.00 320.00
C 278.29 321.02 284.16 326.32 285.00 331.00 Z"/>
</g>
<g fill="#FBFCF8" fill-opacity="1.00" stroke="None">
<path d="
M 274.00 321.00 
C 266.00 321.00 258.00 321.00 250.00 321.00
C 248.55 335.43 251.94 343.98 250.00 359.00 C 248.06 374.02 264.30 368.72 274.98 367.98 C 285.65 367.23 288.24 346.25 276.00 349.00
C 280.15 356.78 277.75 363.93 268.00 364.00 C 258.25 364.07 256.91 359.49 256.00 351.00
C 260.79 344.76 269.08 347.58 276.00 347.00
C 274.77 341.45 280.46 339.35 283.00 336.00
C 280.39 333.81 282.23 331.95 281.30 327.70 C 280.38 323.44 272.79 326.64 274.00 321.00
M 267.00 326.00 
C 281.34 327.45 276.40 342.90 264.93 342.93 C 253.45 342.96 254.21 324.71 267.00 326.00 Z"/>
</g>
<g fill="#FEF7DB" fill-opacity="1.00" stroke="None">
<path d="
M 121.00 330.00 
C 136.10 321.22 147.90 336.41 145.00 351.00
C 151.40 337.36 139.32 323.62 125.00 325.00
C 123.81 326.57 122.43 328.57 121.00 330.00 Z"/>
</g>
<g fill="#FDF0D1" fill-opacity="1.00" stroke="None">
<path d="
M 267.00 326.00 
C 254.21 324.71 253.45 342.96 264.93 342.93 C 276.40 342.90 281.34 327.45 267.00 326.00
M 272.00 340.00 
C 268.00 340.00 264.00 340.00 260.00 340.00
C 260.01 336.27 258.34 332.92 259.00 329.00
C 266.91 326.94 278.45 330.62 272.00 340.00 Z"/>
</g>
<g fill="#F0CC97" fill-opacity="1.00" stroke="None">
<path d="
M 121.00 330.00 
C 117.55 333.45 115.87 335.52 114.00 340.00
C 112.81 347.82 115.04 357.97 122.75 361.25 C 130.45 364.54 140.41 361.19 144.00 354.00
C 144.23 352.72 144.54 352.16 145.00 351.00
C 147.90 336.41 136.10 321.22 121.00 330.00
M 134.00 329.00 
C 152.84 333.38 143.70 367.01 125.00 361.00 C 106.30 354.99 114.56 324.48 134.00 329.00 Z"/>
</g>
<g fill="#F8B156" fill-opacity="1.00" stroke="None">
<path d="
M 134.00 329.00 
C 114.56 324.48 106.30 354.99 125.00 361.00 C 143.70 367.01 152.84 333.38 134.00 329.00 Z"/>
</g>
<g fill="#F2B362" fill-opacity="1.00" stroke="None">
<path d="
M 272.00 340.00 
C 278.45 330.62 266.91 326.94 259.00 329.00
C 258.34 332.92 260.01 336.27 260.00 340.00
C 264.00 340.00 268.00 340.00 272.00 340.00 Z"/>
</g>
<g fill="#F2CB91" fill-opacity="1.00" stroke="None">
<path d="
M 163.00 371.00 
C 162.10 361.84 164.20 356.54 163.00 347.00 C 161.80 337.46 164.24 333.14 172.29 335.71 C 180.35 338.27 183.39 330.52 192.00 334.00
C 187.62 330.27 179.42 331.55 175.00 335.00
C 173.08 331.83 162.54 329.89 162.00 335.00 C 161.46 340.11 161.57 349.36 162.00 354.00 C 162.43 358.64 159.64 368.65 163.00 371.00 Z"/>
</g>
<g fill="#F9D59E" fill-opacity="1.00" stroke="None">
<path d="
M 204.00 349.00 
C 207.58 330.74 230.80 328.62 240.00 343.00
C 239.17 334.13 226.62 330.17 219.08 332.08 C 211.53 333.99 204.75 341.12 204.00 349.00 Z"/>
</g>
<g fill="#F9D9A8" fill-opacity="1.00" stroke="None">
<path d="
M 315.00 332.00 
C 288.70 328.76 281.17 368.00 308.00 373.00 C 334.83 378.00 341.18 335.23 315.00 332.00
M 319.00 370.00 
C 318.57 370.17 318.00 370.00 318.00 370.00
C 305.60 379.18 287.97 361.19 292.00 348.00 C 296.03 334.81 312.94 328.79 324.25 337.75 C 335.55 346.71 332.01 364.89 319.00 370.00 Z"/>
</g>
<g fill="#FDEEC9" fill-opacity="1.00" stroke="None">
<path d="
M 163.00 371.00 
C 166.67 371.00 170.33 371.00 174.00 371.00
C 175.75 363.81 169.07 341.45 180.97 342.03 C 192.88 342.60 184.47 363.92 187.00 371.00
C 189.76 369.71 195.54 372.72 198.00 371.00
C 196.73 359.08 201.52 344.64 193.00 335.00
C 192.65 334.87 192.21 334.30 192.00 334.00
C 183.39 330.52 180.35 338.27 172.29 335.71 C 164.24 333.14 161.80 337.46 163.00 347.00 C 164.20 356.54 162.10 361.84 163.00 371.00
M 175.00 340.00 
C 173.42 348.56 170.49 350.87 172.00 361.00 C 173.51 371.13 162.98 370.08 165.00 360.00 C 167.02 349.92 162.12 345.70 164.00 336.00
C 169.22 335.04 173.96 338.78 178.03 336.03 C 182.10 333.28 188.25 333.51 191.68 336.32 C 195.11 339.14 198.39 345.28 197.00 350.00 C 195.60 354.72 197.61 361.15 197.00 366.00 C 196.39 370.85 187.00 373.02 189.00 363.00 C 191.00 352.98 189.28 336.76 175.00 340.00 Z"/>
</g>
<g fill="#FCFBEE" fill-opacity="1.00" stroke="None">
<path d="
M 204.00 349.00 
C 203.79 351.19 203.79 353.81 204.00 356.00
C 205.75 364.30 213.33 369.00 221.01 370.99 C 228.68 372.99 245.79 366.20 232.00 361.00
C 227.66 368.58 213.58 364.10 215.00 355.00
C 223.67 355.00 232.33 355.00 241.00 355.00
C 241.42 351.12 240.60 347.64 240.00 344.00
C 240.00 344.00 240.05 343.50 240.00 343.00
C 230.80 328.62 207.58 330.74 204.00 349.00
M 214.00 348.00 
C 215.07 342.46 223.20 334.60 229.25 341.75 C 235.29 348.91 219.92 351.68 214.00 348.00 Z"/>
</g>
<g fill="#F0C992" fill-opacity="1.00" stroke="None">
<path d="
M 336.00 342.00 
C 335.31 339.46 334.63 336.84 335.00 334.00
C 349.76 330.44 345.14 350.39 351.00 358.00
C 356.34 350.31 355.00 326.94 370.00 336.00
C 358.98 324.83 353.79 343.40 352.00 352.00
C 349.62 348.68 348.27 345.18 347.33 339.67 C 346.39 334.16 343.41 332.05 337.01 333.01 C 330.60 333.97 334.41 338.18 336.00 342.00 Z"/>
</g>
<g fill="#F2D1A3" fill-opacity="1.00" stroke="None">
<path d="
M 370.00 337.00 
C 372.43 343.85 372.53 352.17 377.00 358.00
C 379.84 351.59 381.52 344.84 383.00 338.00
C 383.48 336.79 383.75 335.33 384.00 334.00
C 387.00 334.00 390.00 334.00 393.00 334.00
C 380.15 327.71 380.76 345.51 377.00 353.00
C 371.86 349.96 374.34 340.32 370.00 337.00 Z"/>
</g>
<g fill="#FCFCF5" fill-opacity="1.00" stroke="None">
<path d="
M 175.00 340.00 
C 189.28 336.76 191.00 352.98 189.00 363.00 C 187.00 373.02 196.39 370.85 197.00 366.00 C 197.61 361.15 195.60 354.72 197.00 350.00 C 198.39 345.28 195.11 339.14 191.68 336.32 C 188.25 333.51 182.10 333.28 178.03 336.03 C 173.96 338.78 169.22 335.04 164.00 336.00
C 162.12 345.70 167.02 349.92 165.00 360.00 C 162.98 370.08 173.51 371.13 172.00 361.00 C 170.49 350.87 173.42 348.56 175.00 340.00 Z"/>
</g>
<g fill="#FEF8DF" fill-opacity="1.00" stroke="None">
<path d="
M 318.00 370.00 
C 308.71 370.00 297.80 369.02 295.08 358.92 C 292.35 348.83 294.90 338.43 304.74 335.74 C 314.59 333.05 323.86 335.34 328.75 345.25 C 333.64 355.15 322.87 363.82 319.00 370.00
C 332.01 364.89 335.55 346.71 324.25 337.75 C 312.94 328.79 296.03 334.81 292.00 348.00 C 287.97 361.19 305.60 379.18 318.00 370.00 Z"/>
</g>
<g fill="#FCFBF0" fill-opacity="1.00" stroke="None">
<path d="
M 336.00 342.00 
C 343.46 349.28 337.13 366.22 348.00 371.00 C 358.87 375.78 360.17 350.31 365.00 347.00
C 371.02 354.27 365.01 361.64 372.31 368.69 C 379.60 375.75 383.42 361.44 386.00 357.00
C 388.01 349.71 389.97 342.56 391.00 335.00
C 387.66 334.50 384.48 335.02 383.00 338.00
C 381.52 344.84 379.84 351.59 377.00 358.00
C 372.53 352.17 372.43 343.85 370.00 337.00
C 370.00 337.00 370.06 336.49 370.00 336.00
C 355.00 326.94 356.34 350.31 351.00 358.00
C 345.14 350.39 349.76 330.44 335.00 334.00
C 334.63 336.84 335.31 339.46 336.00 342.00 Z"/>
</g>
<g fill="#FDEFC9" fill-opacity="1.00" stroke="None">
<path d="
M 383.00 338.00 
C 384.48 335.02 387.66 334.50 391.00 335.00
C 389.97 342.56 388.01 349.71 386.00 357.00
C 388.15 353.30 396.73 337.73 393.00 334.00
C 390.00 334.00 387.00 334.00 384.00 334.00
C 383.75 335.33 383.48 336.79 383.00 338.00 Z"/>
</g>
<g fill="#EFC58D" fill-opacity="1.00" stroke="None">
<path d="
M 198.00 371.00 
C 201.95 368.24 197.73 354.72 199.00 350.00 C 200.27 345.28 197.65 336.69 193.00 335.00
C 201.52 344.64 196.73 359.08 198.00 371.00 Z"/>
</g>
<g fill="#FBFCF9" fill-opacity="1.00" stroke="None">
<path d="
M 318.00 370.00 
C 318.00 370.00 318.57 370.17 319.00 370.00
C 322.87 363.82 333.64 355.15 328.75 345.25 C 323.86 335.34 314.59 333.05 304.74 335.74 C 294.90 338.43 292.35 348.83 295.08 358.92 C 297.80 369.02 308.71 370.00 318.00 370.00
M 321.00 346.00 
C 321.04 346.50 321.00 347.00 321.00 347.00
C 327.51 349.66 321.20 367.00 311.78 365.78 C 302.36 364.56 298.16 355.68 300.77 346.77 C 303.38 337.86 320.25 335.84 321.00 346.00 Z"/>
</g>
<g fill="#F1C689" fill-opacity="1.00" stroke="None">
<path d="
M 214.00 348.00 
C 219.92 351.68 235.29 348.91 229.25 341.75 C 223.20 334.60 215.07 342.46 214.00 348.00 Z"/>
</g>
<g fill="#FEFAE3" fill-opacity="1.00" stroke="None">
<path d="
M 321.00 347.00 
C 324.87 357.94 314.92 368.86 304.00 362.00
C 302.99 357.65 299.38 350.55 304.00 347.00
C 303.97 346.50 304.00 346.00 304.00 346.00
C 304.55 337.23 317.56 342.34 321.00 346.00
C 320.25 335.84 303.38 337.86 300.77 346.77 C 298.16 355.68 302.36 364.56 311.78 365.78 C 321.20 367.00 327.51 349.66 321.00 347.00 Z"/>
</g>
<g fill="#FEF6DA" fill-opacity="1.00" stroke="None">
<path d="
M 144.00 354.00 
C 140.41 361.19 130.45 364.54 122.75 361.25 C 115.04 357.97 112.81 347.82 114.00 340.00
C 111.21 342.97 111.02 347.85 111.00 352.00
C 114.40 352.62 115.51 358.41 120.25 360.75 C 124.99 363.09 128.46 364.31 133.00 367.00
C 135.41 362.97 139.95 360.56 144.00 359.00
C 144.22 357.37 143.71 355.61 144.00 354.00 Z"/>
</g>
<g fill="#F4D5A9" fill-opacity="1.00" stroke="None">
<path d="
M 304.00 346.00 
C 308.01 344.69 317.49 339.94 319.75 347.25 C 322.01 354.55 319.40 362.36 311.00 362.00 C 302.60 361.64 304.38 352.67 304.00 347.00
C 299.38 350.55 302.99 357.65 304.00 362.00
C 314.92 368.86 324.87 357.94 321.00 347.00
C 321.00 347.00 321.04 346.50 321.00 346.00
C 317.56 342.34 304.55 337.23 304.00 346.00 Z"/>
</g>
<g fill="#F3B059" fill-opacity="1.00" stroke="None">
<path d="
M 304.00 346.00 
C 304.00 346.00 303.97 346.50 304.00 347.00
C 304.38 352.67 302.60 361.64 311.00 362.00 C 319.40 362.36 322.01 354.55 319.75 347.25 C 317.49 339.94 308.01 344.69 304.00 346.00 Z"/>
</g>
<g fill="#F6D4A5" fill-opacity="1.00" stroke="None">
<path d="
M 204.00 356.00 
C 204.40 372.88 232.39 378.63 240.00 365.00
C 233.05 355.57 231.96 365.32 222.22 362.78 C 212.49 360.23 222.70 351.76 231.00 356.00 C 239.30 360.24 247.17 349.49 240.00 344.00
C 240.60 347.64 241.42 351.12 241.00 355.00
C 232.33 355.00 223.67 355.00 215.00 355.00
C 213.58 364.10 227.66 368.58 232.00 361.00
C 245.79 366.20 228.68 372.99 221.01 370.99 C 213.33 369.00 205.75 364.30 204.00 356.00 Z"/>
</g>
<g fill="#F1B666" fill-opacity="1.00" stroke="None">
<path d="
M 273.00 349.00 
C 262.05 344.54 253.63 355.41 262.00 362.00 C 270.37 368.59 282.38 352.82 273.00 349.00 Z"/>
</g>
</svg>